<?xml version="1.0" standalone="no"?><!DOCTYPE svg PUBLIC "-//W3C//DTD SVG 1.1//EN" "http://www.w3.org/Graphics/SVG/1.1/DTD/svg11.dtd"><svg t="1712552299726" class="icon" viewBox="0 0 1024 1024" version="1.1" xmlns="http://www.w3.org/2000/svg" p-id="6173" xmlns:xlink="http://www.w3.org/1999/xlink" width="64" height="64"><path d="M320 938.666667c-68.266667 0-140.8-25.6-196.266667-81.066667-110.933333-110.933333-106.666667-290.133333 4.266667-396.8 98.133333-93.866667 247.466667-102.4 354.133333-25.6l384-384c17.066667-17.066667 42.666667-17.066667 59.733334 0s17.066667 42.666667 0 59.733333L870.4 170.666667l98.133333 98.133333c17.066667 17.066667 17.066667 42.666667 0 59.733333l-149.333333 149.333334c-17.066667 17.066667-42.666667 17.066667-59.733333 0l-98.133334-98.133334-115.2 115.2c81.066667 106.666667 72.533333 260.266667-25.6 358.4-55.466667 59.733333-128 85.333333-200.533333 85.333334z m4.266667-465.066667c-46.933333 0-98.133333 17.066667-132.266667 55.466667-76.8 72.533333-76.8 196.266667-4.266667 273.066666 76.8 76.8 200.533333 76.8 273.066667 0 72.533333-76.8 72.533333-196.266667 0-273.066666-42.666667-38.4-89.6-55.466667-136.533333-55.466667z m396.8-153.6l68.266666 68.266667L878.933333 298.666667 810.666667 230.4l-89.6 89.6z" p-id="6174" fill="#00a8e8"></path></svg>