<?xml version="1.0" standalone="no"?><!DOCTYPE svg PUBLIC "-//W3C//DTD SVG 1.1//EN" "http://www.w3.org/Graphics/SVG/1.1/DTD/svg11.dtd"><svg t="1712564128276" class="icon" viewBox="0 0 1024 1024" version="1.1" xmlns="http://www.w3.org/2000/svg" p-id="8320" xmlns:xlink="http://www.w3.org/1999/xlink" width="64" height="64"><path d="M896 112c8.832 0 16 7.168 16 16v192a32 32 0 0 1-27.648 31.701333l-4.352 0.298667a32 32 0 0 1-32-32V224.085333l-311.978667 311.936a34.005333 34.005333 0 0 1-51.370666-44.245333l3.328-3.84 311.893333-311.936H704a32 32 0 0 1 0-64H896z" fill="#98a2b3" p-id="8321"></path><path d="M512 144a32 32 0 0 1-32 32H176v672h672V544a32 32 0 1 1 64 0v336a32 32 0 0 1-32 32H144a32 32 0 0 1-32-32V144a32 32 0 0 1 32-32h336a32 32 0 0 1 32 32z" fill="#98a2b3" p-id="8322"></path></svg>